<svg width="40" height="40" viewBox="0 0 40 40" fill="none" xmlns="http://www.w3.org/2000/svg">
<g clip-path="url(#clip0_65_189)">
<path d="M36.1012 29.7719C35.5679 30.0509 35.0179 30.2966 34.4543 30.5079C32.6605 31.1791 30.7602 31.521 28.8449 31.5173C21.4512 31.5173 15.0106 26.4313 15.0106 19.9048C15.02 19.0294 15.2629 18.1724 15.7142 17.4223C16.1655 16.6721 16.8088 16.056 17.5778 15.6376C10.8903 15.9188 9.17151 22.8876 9.17151 26.9704C9.17151 38.5141 19.8106 39.6844 22.1028 39.6844C23.3387 39.6844 25.2028 39.3251 26.3215 38.9719L26.5262 38.9032C30.8313 37.4149 34.5014 34.5053 36.9324 30.6532C37.0069 30.5359 37.0401 30.3971 37.0269 30.2588C37.0137 30.1205 36.9547 29.9905 36.8594 29.8894C36.7641 29.7883 36.6378 29.7219 36.5004 29.7006C36.3631 29.6794 36.2226 29.7045 36.1012 29.7719Z" fill="url(#paint0_linear_65_189)"/>
<path opacity="0.35" d="M36.1012 29.7719C35.5679 30.0509 35.0179 30.2966 34.4543 30.5079C32.6605 31.1791 30.7602 31.521 28.8449 31.5173C21.4512 31.5173 15.0106 26.4313 15.0106 19.9048C15.02 19.0294 15.2629 18.1724 15.7142 17.4223C16.1655 16.6721 16.8088 16.056 17.5778 15.6376C10.8903 15.9188 9.17151 22.8876 9.17151 26.9704C9.17151 38.5141 19.8106 39.6844 22.1028 39.6844C23.3387 39.6844 25.2028 39.3251 26.3215 38.9719L26.5262 38.9032C30.8313 37.4149 34.5014 34.5053 36.9324 30.6532C37.0069 30.5359 37.0401 30.3971 37.0269 30.2588C37.0137 30.1205 36.9547 29.9905 36.8594 29.8894C36.7641 29.7883 36.6378 29.7219 36.5004 29.7006C36.3631 29.6794 36.2226 29.7045 36.1012 29.7719Z" fill="url(#paint1_radial_65_189)"/>
<path d="M16.5169 37.7219C15.1232 36.8569 13.9154 35.7234 12.9638 34.3875C11.879 32.9014 11.1326 31.1959 10.7768 29.3908C10.421 27.5856 10.4645 25.7245 10.9041 23.9379C11.3438 22.1513 12.169 20.4826 13.3218 19.0487C14.4747 17.6148 15.9273 16.4505 17.5778 15.6375C18.0653 15.4078 18.8981 14.9922 20.0059 15.0125C20.7864 15.0182 21.555 15.2045 22.2514 15.5569C22.9478 15.9093 23.5532 16.4182 24.02 17.0437C24.651 17.8862 24.9989 18.9069 25.0138 19.9594C25.0138 19.9265 28.8356 7.52185 12.5138 7.52185C5.65438 7.52185 0.0137551 14.0312 0.0137551 19.7422C-0.0133013 22.7632 0.633088 25.7523 1.90594 28.4922C3.98614 32.9306 7.62384 36.4505 12.1283 38.3836C16.6327 40.3166 21.6902 40.5282 26.3403 38.9781C24.7121 39.4915 22.9919 39.6456 21.2984 39.4298C19.6049 39.214 17.9784 38.6334 16.5309 37.7281L16.5169 37.7219Z" fill="url(#paint2_linear_65_189)"/>
<path opacity="0.41" d="M16.5169 37.7219C15.1232 36.8569 13.9154 35.7234 12.9638 34.3875C11.879 32.9014 11.1326 31.1959 10.7768 29.3908C10.421 27.5856 10.4645 25.7245 10.9041 23.9379C11.3438 22.1513 12.169 20.4826 13.3218 19.0487C14.4747 17.6148 15.9273 16.4505 17.5778 15.6375C18.0653 15.4078 18.8981 14.9922 20.0059 15.0125C20.7864 15.0182 21.555 15.2045 22.2514 15.5569C22.9478 15.9093 23.5532 16.4182 24.02 17.0437C24.651 17.8862 24.9989 18.9069 25.0138 19.9594C25.0138 19.9265 28.8356 7.52185 12.5138 7.52185C5.65438 7.52185 0.0137551 14.0312 0.0137551 19.7422C-0.0133013 22.7632 0.633088 25.7523 1.90594 28.4922C3.98614 32.9306 7.62384 36.4505 12.1283 38.3836C16.6327 40.3166 21.6902 40.5282 26.3403 38.9781C24.7121 39.4915 22.9919 39.6456 21.2984 39.4298C19.6049 39.214 17.9784 38.6334 16.5309 37.7281L16.5169 37.7219Z" fill="url(#paint3_radial_65_189)"/>
<path d="M23.7985 23.2594C23.6719 23.4234 23.2829 23.65 23.2829 24.1437C23.2829 24.5516 23.5485 24.9437 24.0204 25.2734C26.2673 26.8359 30.5032 26.6297 30.5141 26.6297C32.179 26.6257 33.8123 26.1751 35.2438 25.325C36.6879 24.4818 37.8864 23.2757 38.7204 21.8263C39.5545 20.377 39.9951 18.7347 39.9985 17.0625C40.0391 13.5609 38.7485 11.2328 38.2266 10.2016C34.9157 3.725 27.7688 9.79129e-08 19.9969 9.79129e-08C14.741 -0.00051962 9.69607 2.06797 5.95333 5.75808C2.21058 9.44819 0.0708601 14.4633 -0.00305176 19.7187C0.0719482 14.0094 5.74695 9.39844 12.4969 9.39844C13.0438 9.39844 16.1626 9.45156 19.0594 10.9719C21.6126 12.3125 22.9501 13.9312 23.8798 15.5359C24.8454 17.2031 25.0173 19.3094 25.0173 20.1484C25.0173 20.9875 24.5891 22.2312 23.7985 23.2594Z" fill="url(#paint4_radial_65_189)"/>
<path d="M23.7985 23.2594C23.6719 23.4234 23.2829 23.65 23.2829 24.1437C23.2829 24.5516 23.5485 24.9437 24.0204 25.2734C26.2673 26.8359 30.5032 26.6297 30.5141 26.6297C32.179 26.6257 33.8123 26.1751 35.2438 25.325C36.6879 24.4818 37.8864 23.2757 38.7204 21.8263C39.5545 20.377 39.9951 18.7347 39.9985 17.0625C40.0391 13.5609 38.7485 11.2328 38.2266 10.2016C34.9157 3.725 27.7688 9.79129e-08 19.9969 9.79129e-08C14.741 -0.00051962 9.69607 2.06797 5.95333 5.75808C2.21058 9.44819 0.0708601 14.4633 -0.00305176 19.7187C0.0719482 14.0094 5.74695 9.39844 12.4969 9.39844C13.0438 9.39844 16.1626 9.45156 19.0594 10.9719C21.6126 12.3125 22.9501 13.9312 23.8798 15.5359C24.8454 17.2031 25.0173 19.3094 25.0173 20.1484C25.0173 20.9875 24.5891 22.2312 23.7985 23.2594Z" fill="url(#paint5_radial_65_189)"/>
</g>
<defs>
<linearGradient id="paint0_linear_65_189" x1="9.17151" y1="27.6641" x2="37.0371" y2="27.6641" gradientUnits="userSpaceOnUse">
<stop stop-color="#0C59A4"/>
<stop offset="1" stop-color="#114A8B"/>
</linearGradient>
<radialGradient id="paint1_radial_65_189" cx="0" cy="0" r="1" gradientUnits="userSpaceOnUse" gradientTransform="translate(24.5621 27.8837) scale(14.9031 14.158)">
<stop offset="0.72" stop-opacity="0"/>
<stop offset="0.95" stop-opacity="0.53"/>
<stop offset="1"/>
</radialGradient>
<linearGradient id="paint2_linear_65_189" x1="23.8622" y1="15.5765" x2="6.45749" y2="34.5344" gradientUnits="userSpaceOnUse">
<stop stop-color="#1B9DE2"/>
<stop offset="0.16" stop-color="#1595DF"/>
<stop offset="0.67" stop-color="#0680D7"/>
<stop offset="1" stop-color="#0078D4"/>
</linearGradient>
<radialGradient id="paint3_radial_65_189" cx="0" cy="0" r="1" gradientUnits="userSpaceOnUse" gradientTransform="translate(11.027 31.095) rotate(-81.3844) scale(22.4103 18.1053)">
<stop offset="0.76" stop-opacity="0"/>
<stop offset="0.95" stop-opacity="0.5"/>
<stop offset="1"/>
</radialGradient>
<radialGradient id="paint4_radial_65_189" cx="0" cy="0" r="1" gradientUnits="userSpaceOnUse" gradientTransform="translate(4.03796 7.40263) rotate(92.2906) scale(31.655 67.4185)">
<stop stop-color="#35C1F1"/>
<stop offset="0.11" stop-color="#34C1ED"/>
<stop offset="0.23" stop-color="#2FC2DF"/>
<stop offset="0.31" stop-color="#2BC3D2"/>
<stop offset="0.67" stop-color="#36C752"/>
</radialGradient>
<radialGradient id="paint5_radial_65_189" cx="0" cy="0" r="1" gradientUnits="userSpaceOnUse" gradientTransform="translate(37.5082 12.0947) rotate(73.7398) scale(15.2094 12.3683)">
<stop stop-color="#66EB6E"/>
<stop offset="1" stop-color="#66EB6E" stop-opacity="0"/>
</radialGradient>
<clipPath id="clip0_65_189">
<rect width="40" height="40" fill="white"/>
</clipPath>
</defs>
</svg>
