<svg width="29" height="28" viewBox="0 0 29 28" fill="none" xmlns="http://www.w3.org/2000/svg">
<g clip-path="url(#clip0_65_143)">
<path d="M27.5854 0.666748H8.02938C7.35448 0.666748 6.80737 1.21386 6.80737 1.88875V7.33341L18.1407 10.6667L28.8074 7.33341V1.88875C28.8074 1.21386 28.2603 0.666748 27.5854 0.666748Z" fill="#41A5EE"/>
<path d="M28.8074 7.33337H6.80737V14L18.1407 16L28.8074 14V7.33337Z" fill="#2B7CD3"/>
<path d="M6.80737 14V20.6667L17.474 22L28.8074 20.6667V14H6.80737Z" fill="#185ABD"/>
<path d="M8.02938 27.3334H27.5855C28.2604 27.3334 28.8075 26.7863 28.8075 26.1114V20.6667H6.80737V26.1114C6.80737 26.7863 7.35448 27.3334 8.02938 27.3334Z" fill="#103F91"/>
<path opacity="0.1" d="M14.9187 6H6.80737V22.6667H14.9187C15.5927 22.6645 16.1385 22.1186 16.1407 21.4447V7.222C16.1385 6.54802 15.5927 6.00219 14.9187 6Z" fill="black"/>
<path opacity="0.2" d="M14.252 6.66675H6.80737V23.3334H14.252C14.926 23.3312 15.4718 22.7854 15.474 22.1114V7.88875C15.4718 7.21477 14.926 6.66894 14.252 6.66675Z" fill="black"/>
<path opacity="0.2" d="M14.252 6.66675H6.80737V22.0001H14.252C14.926 21.9979 15.4718 21.4521 15.474 20.7781V7.88875C15.4718 7.21477 14.926 6.66894 14.252 6.66675Z" fill="black"/>
<path opacity="0.2" d="M13.5854 6.66675H6.80737V22.0001H13.5854C14.2594 21.9979 14.8052 21.4521 14.8074 20.7781V7.88875C14.8052 7.21477 14.2594 6.66894 13.5854 6.66675Z" fill="black"/>
<path d="M1.36287 6.66675H13.5855C14.2604 6.66675 14.8075 7.21386 14.8075 7.88875V20.1114C14.8075 20.7863 14.2604 21.3334 13.5855 21.3334H1.36287C0.687978 21.3334 0.140869 20.7863 0.140869 20.1114V7.88875C0.140869 7.21386 0.687978 6.66675 1.36287 6.66675Z" fill="url(#paint0_linear_65_143)"/>
<path d="M5.15549 16.0387C5.17949 16.2273 5.19549 16.3913 5.20282 16.532H5.23081C5.24148 16.3987 5.2637 16.238 5.29748 16.05C5.33126 15.862 5.36171 15.7031 5.38882 15.5733L6.67415 10.0279H8.33615L9.66949 15.49C9.74696 15.8296 9.80241 16.1739 9.83549 16.5207H9.8575C9.88235 16.1847 9.92867 15.8507 9.99616 15.5206L11.0595 10.0253H12.5722L10.7042 17.972H8.93682L7.67016 12.7093C7.63349 12.558 7.5915 12.3599 7.5455 12.1166C7.49949 11.8733 7.47083 11.6953 7.45949 11.5833H7.43749C7.42283 11.7126 7.39415 11.9046 7.35148 12.1593C7.30882 12.414 7.27459 12.6024 7.24881 12.7246L6.05814 17.9707H4.2608L2.38281 10.0279H3.9228L5.08081 15.5846C5.10682 15.6986 5.13149 15.8506 5.15549 16.0387Z" fill="white"/>
</g>
<defs>
<linearGradient id="paint0_linear_65_143" x1="2.68877" y1="5.7119" x2="12.2596" y2="22.2883" gradientUnits="userSpaceOnUse">
<stop stop-color="#2368C4"/>
<stop offset="0.5" stop-color="#1A5DBE"/>
<stop offset="1" stop-color="#1146AC"/>
</linearGradient>
<clipPath id="clip0_65_143">
<rect width="28.6667" height="26.6667" fill="white" transform="translate(0.140869 0.666748)"/>
</clipPath>
</defs>
</svg>
