<svg width="92" height="24" viewBox="0 0 92 24" fill="none" xmlns="http://www.w3.org/2000/svg">
<path d="M17.7451 10.7507C18.3359 11.3415 18.8473 12.0581 19.237 12.82C19.4256 13.1888 19.2796 13.6406 18.9108 13.8292C18.542 14.0179 18.0902 13.8718 17.9015 13.503C17.5812 12.8767 17.161 12.2879 16.6844 11.8113C14.1218 9.24869 9.96686 9.24869 7.40421 11.8113C6.90639 12.3092 6.50198 12.8689 6.19062 13.4845C6.00366 13.8541 5.55247 14.0022 5.18285 13.8152C4.81322 13.6283 4.66515 13.1771 4.85211 12.8074C5.23491 12.0506 5.73295 11.3613 6.34355 10.7507C9.49199 7.60225 14.5966 7.60225 17.7451 10.7507ZM15.6432 13.8195C16.0908 14.2671 16.459 14.8168 16.7153 15.4017C16.8816 15.7811 16.7088 16.2234 16.3294 16.3896C15.95 16.5559 15.5077 16.3831 15.3414 16.0037C15.1584 15.5859 14.8947 15.1924 14.5825 14.8802C13.1798 13.4775 10.9055 13.4775 9.50278 14.8802C9.19226 15.1907 8.94016 15.5689 8.75558 15.9907C8.58954 16.3702 8.1473 16.5432 7.76783 16.3772C7.38835 16.2111 7.21533 15.7689 7.38137 15.3894C7.63882 14.8011 7.99521 14.2664 8.44212 13.8195C10.4306 11.831 13.6547 11.831 15.6432 13.8195ZM20.4482 8.2788C20.9573 8.78785 21.4379 9.36943 21.8563 9.97568C22.0916 10.3166 22.006 10.7837 21.6651 11.019C21.3242 11.2542 20.8571 11.1686 20.6218 10.8277C20.2538 10.2945 19.831 9.78285 19.3876 9.33946C15.3075 5.25941 8.69243 5.25941 4.61238 9.33946C4.1905 9.76134 3.77208 10.273 3.39035 10.8232C3.15424 11.1636 2.68695 11.2481 2.34661 11.012C2.00628 10.7758 1.92178 10.3086 2.15788 9.96822C2.58804 9.34815 3.06246 8.76806 3.55172 8.2788C8.21756 3.61296 15.7824 3.61296 20.4482 8.2788ZM13.0608 16.4392C13.6466 17.0251 13.6466 17.9749 13.0608 18.5608C12.4749 19.1466 11.525 19.1466 10.9392 18.5608C10.3533 17.9749 10.3533 17.0251 10.9392 16.4392C11.525 15.8533 12.4749 15.8533 13.0608 16.4392Z" fill="white"/>
<path d="M49 4.25C49 3.17138 47.7255 2.59915 46.9195 3.31583L42.4279 7.30909C42.2906 7.43116 42.1133 7.49859 41.9296 7.49859H38.25C37.0074 7.49859 36 8.50595 36 9.74859V14.2465C36 15.4891 37.0074 16.4965 38.25 16.4965H41.9296C42.1133 16.4965 42.2906 16.5639 42.4279 16.686L46.9194 20.6797C47.7255 21.3965 49 20.8243 49 19.7456V4.25ZM43.4246 8.43011L47.5 4.80679V19.1888L43.4247 15.5651C43.0128 15.1988 42.4807 14.9965 41.9296 14.9965H38.25C37.8358 14.9965 37.5 14.6607 37.5 14.2465V9.74859C37.5 9.33437 37.8358 8.99859 38.25 8.99859H41.9296C42.4807 8.99859 43.0127 8.7963 43.4246 8.43011ZM52.9916 5.89733C53.3244 5.65079 53.7941 5.72077 54.0407 6.05362C55.2717 7.7157 56 9.7739 56 12C56 14.2261 55.2717 16.2843 54.0407 17.9464C53.7941 18.2793 53.3244 18.3492 52.9916 18.1027C52.6587 17.8562 52.5888 17.3865 52.8353 17.0536C53.8815 15.6411 54.5 13.8939 54.5 12C54.5 10.1062 53.8815 8.35896 52.8353 6.94641C52.5888 6.61356 52.6587 6.14387 52.9916 5.89733ZM51.143 8.36933C51.5072 8.17214 51.9624 8.30757 52.1596 8.67184C52.6958 9.66245 53 10.7968 53 12C53 13.2032 52.6958 14.3376 52.1596 15.3282C51.9624 15.6924 51.5072 15.8279 51.143 15.6307C50.7787 15.4335 50.6432 14.9783 50.8404 14.6141C51.2609 13.8373 51.5 12.9477 51.5 12C51.5 11.0523 51.2609 10.1627 50.8404 9.38593C50.6432 9.02167 50.7787 8.56652 51.143 8.36933Z" fill="white"/>
<path d="M85 6C86.6569 6 88 7.34315 88 9V10H89.0003C89.1824 10 89.3532 10.0487 89.5003 10.1338C89.7992 10.3067 90.0003 10.6299 90.0003 11V13C90.0003 13.3701 89.7992 13.6933 89.5003 13.8662C89.3532 13.9513 89.1824 14 89.0003 14H88V15C88 16.6569 86.6569 18 85 18H72.9996C71.3428 18 69.9996 16.6569 69.9996 15V9C69.9996 7.34315 71.3428 6 72.9996 6H85ZM84.9981 7.5H72.9996C72.2199 7.5 71.5792 8.09489 71.5065 8.85554L71.4996 9V15C71.4996 15.7797 72.0945 16.4204 72.8552 16.4931L72.9996 16.5H84.9981C85.7778 16.5 86.4186 15.9051 86.4912 15.1445L86.4981 15V9C86.4981 8.2203 85.9032 7.57955 85.1426 7.50687L84.9981 7.5ZM74 9H84C84.5128 9 84.9355 9.38604 84.9932 9.88338L85 10V14C85 14.5128 84.6139 14.9355 84.1166 14.9933L84 15H74C73.4871 15 73.0645 14.614 73.0067 14.1166L73 14V10C73 9.48717 73.386 9.06449 73.8833 9.00673L74 9H84H74Z" fill="white"/>
</svg>
